<svg width="25" height="26" viewBox="0 0 25 26" fill="none" xmlns="http://www.w3.org/2000/svg">
<path d="M9.64902 25.0563L6.51402 19.1373L0.565018 15.9723L2.18952 14.3568L7.36752 15.2373L11.9425 10.6623L0.689518 5.85931L2.77152 3.78931L16.459 6.13681L21.139 1.42831C21.559 1.00731 22.074 0.796814 22.684 0.796814C23.294 0.796814 23.809 1.00731 24.229 1.42831C24.651 1.84931 24.862 2.36331 24.862 2.97031C24.862 3.57731 24.6515 4.09131 24.2305 4.51231L19.513 9.19981L21.862 22.8798L19.771 24.9708L14.9875 13.7178L10.4125 18.2928L11.272 23.4333L9.64902 25.0563Z" fill="white"/>
</svg>
