<svg width="31" height="31" viewBox="0 0 31 31" fill="none" xmlns="http://www.w3.org/2000/svg">
<path d="M5.1745 23.4843H7.4245V21.2343H23.9245V23.4843H26.1745V17.7093C26.1745 17.1843 26.0745 16.6908 25.8745 16.2288C25.6745 15.7668 25.3995 15.3603 25.0495 15.0093V11.4843C25.0495 10.6593 24.756 9.95331 24.169 9.36631C23.582 8.77931 22.8755 8.48531 22.0495 8.48431H17.1745C16.8995 8.48431 16.637 8.52181 16.387 8.59681C16.137 8.67181 15.8995 8.78431 15.6745 8.93431C15.4495 8.78431 15.212 8.67181 14.962 8.59681C14.712 8.52181 14.4495 8.48431 14.1745 8.48431H9.2995C8.4745 8.48431 7.7685 8.77831 7.1815 9.36631C6.5945 9.95431 6.3005 10.6603 6.2995 11.4843V15.0093C5.9495 15.3593 5.6745 15.7658 5.4745 16.2288C5.2745 16.6918 5.1745 17.1853 5.1745 17.7093V23.4843ZM7.4245 18.9843V17.4843C7.4245 17.0593 7.5685 16.7033 7.8565 16.4163C8.1445 16.1293 8.5005 15.9853 8.9245 15.9843H22.4245C22.8495 15.9843 23.206 16.1283 23.494 16.4163C23.782 16.7043 23.9255 17.0603 23.9245 17.4843V18.9843H7.4245ZM8.5495 13.7343V10.7343H14.5495V13.7343H8.5495ZM16.7995 13.7343V10.7343H22.7995V13.7343H16.7995ZM3.6745 30.9843C2.8495 30.9843 2.1435 30.6908 1.5565 30.1038C0.9695 29.5168 0.6755 28.8103 0.6745 27.9843V3.98431C0.6745 3.15931 0.9685 2.45331 1.5565 1.86631C2.1445 1.27931 2.8505 0.985314 3.6745 0.984314H27.6745C28.4995 0.984314 29.206 1.27831 29.794 1.86631C30.382 2.45431 30.6755 3.16031 30.6745 3.98431V27.9843C30.6745 28.8093 30.381 29.5158 29.794 30.1038C29.207 30.6918 28.5005 30.9853 27.6745 30.9843H3.6745Z" fill="white"/>
</svg>
