<svg width="217" height="72" viewBox="0 0 217 72" fill="none" xmlns="http://www.w3.org/2000/svg">
<g clip-path="url(#clip0_2064_41)">
<path d="M196.883 48.5935C196.2 48.5935 195.653 48.4117 195.243 48.047C194.834 47.6828 194.629 47.1816 194.629 46.5439V34.5869C194.629 31.2845 195.574 28.6995 197.463 26.8319C199.353 24.9643 201.982 24.0305 205.351 24.0305C207.559 24.0305 209.471 24.4519 211.088 25.2946C212.704 26.1373 213.933 27.3557 214.776 28.95C215.64 30.5443 216.073 32.4232 216.073 34.5869V46.5439C216.073 47.1816 215.868 47.6828 215.459 48.047C215.049 48.4117 214.502 48.5935 213.819 48.5935C213.136 48.5935 212.579 48.4117 212.146 48.047C211.737 47.6599 211.531 47.1587 211.531 46.5439V40.9754H199.171V46.5439C199.171 47.1587 198.954 47.6599 198.522 48.047C198.112 48.4117 197.566 48.5935 196.883 48.5935ZM211.531 37.4566V34.4844C211.531 32.2069 211.008 30.4987 209.961 29.36C208.937 28.1984 207.4 27.6177 205.351 27.6177C201.231 27.6177 199.171 29.9066 199.171 34.4844V37.4566H211.531Z" fill="#F7F7F7"/>
<path d="M180.513 48.5935C177.969 48.5935 175.762 48.1045 173.893 47.1269C172.024 46.1488 170.594 44.7387 169.603 42.8964C168.612 41.0542 168.117 38.8708 168.117 36.3463C168.117 33.8217 168.612 31.6383 169.603 29.7961C170.594 27.9311 172.013 26.5096 173.859 25.5316C175.728 24.5309 177.924 24.0305 180.446 24.0305C182.54 24.0305 184.477 24.3944 186.256 25.1223C188.035 25.85 189.353 26.8166 190.208 28.022C190.478 28.386 190.613 28.7612 190.613 29.1478C190.613 29.7165 190.31 30.2282 189.701 30.6831C189.431 30.8878 189.094 30.9901 188.688 30.9901C188.35 30.9901 188.013 30.9219 187.675 30.7854C187.337 30.6262 187.056 30.4101 186.83 30.1372C186.065 29.2502 185.175 28.6134 184.162 28.2268C183.148 27.8173 181.91 27.6127 180.446 27.6127C177.992 27.6127 176.077 28.386 174.704 29.9325C173.33 31.4563 172.643 33.5943 172.643 36.3463C172.643 39.0755 173.33 41.202 174.704 42.7258C176.1 44.2497 178.036 45.0116 180.513 45.0116C183.351 45.0116 185.614 44.1701 187.303 42.487C188.001 41.8275 188.643 41.4977 189.229 41.4977C189.634 41.4977 190.006 41.6341 190.343 41.9071C190.861 42.362 191.12 42.8623 191.12 43.4081C191.12 43.8175 190.974 44.2156 190.681 44.6022C189.713 45.8531 188.328 46.831 186.526 47.536C184.747 48.241 182.743 48.5935 180.513 48.5935Z" fill="#F7F7F7"/>
<path d="M156.013 48.2036C155.333 48.2036 154.79 48.0222 154.382 47.659C153.975 47.2957 153.771 46.7964 153.771 46.161V27.5374H147.218C146.561 27.5374 146.041 27.3898 145.656 27.0948C145.294 26.777 145.113 26.3457 145.113 25.801C145.113 25.2335 145.294 24.8023 145.656 24.5072C146.018 24.1894 146.539 24.0305 147.218 24.0305H164.841C165.521 24.0305 166.041 24.1894 166.403 24.5072C166.766 24.8023 166.947 25.2335 166.947 25.801C166.947 26.3457 166.754 26.777 166.369 27.0948C166.007 27.3898 165.498 27.5374 164.841 27.5374H158.288V46.161C158.288 46.7739 158.073 47.2732 157.643 47.659C157.235 48.0222 156.692 48.2036 156.013 48.2036Z" fill="#F7F7F7"/>
<path d="M138.857 48.5935C138.154 48.5935 137.591 48.4117 137.168 48.0479C136.746 47.6837 136.535 47.1835 136.535 46.5468V26.0775C136.535 25.4406 136.746 24.9403 137.168 24.5764C137.591 24.2125 138.154 24.0305 138.857 24.0305C139.537 24.0305 140.1 24.2125 140.546 24.5764C140.991 24.9403 141.214 25.4406 141.214 26.0775V46.5468C141.214 47.1835 140.991 47.6837 140.546 48.0479C140.1 48.4117 139.537 48.5935 138.857 48.5935Z" fill="#F7F7F7"/>
<path d="M122.8 48.5935C120.548 48.5935 118.433 48.2298 116.457 47.5019C114.48 46.7515 112.768 45.6825 111.32 44.2952C110.975 43.954 110.803 43.5673 110.803 43.1353C110.803 42.6348 111.032 42.1573 111.493 41.7024C111.86 41.3385 112.263 41.1565 112.699 41.1565C113.159 41.1565 113.71 41.4181 114.354 41.9412C115.434 42.9192 116.71 43.6811 118.181 44.2269C119.675 44.75 121.214 45.0116 122.8 45.0116C124.317 45.0116 125.501 44.7614 126.352 44.261C127.202 43.7379 127.627 43.0101 127.627 42.0776C127.627 41.0997 127.167 40.315 126.248 39.7237C125.329 39.1096 123.766 38.5638 121.559 38.0861C118.089 37.3356 115.56 36.3463 113.975 35.1181C112.412 33.8899 111.63 32.3093 111.63 30.376C111.63 29.1478 112.044 28.0562 112.871 27.1009C113.699 26.123 114.848 25.3724 116.319 24.8493C117.813 24.3035 119.514 24.0305 121.421 24.0305C123.559 24.0305 125.455 24.3831 127.11 25.0881C128.788 25.7704 130.063 26.737 130.937 27.9879C131.235 28.4656 131.385 28.8749 131.385 29.2161C131.362 29.7847 131.075 30.2737 130.523 30.6831C130.224 30.8878 129.88 30.9901 129.489 30.9901C128.776 30.9901 128.19 30.7172 127.73 30.1713C127.064 29.3753 126.167 28.7498 125.042 28.295C123.938 27.8401 122.732 27.6127 121.421 27.6127C119.79 27.6127 118.514 27.8628 117.595 28.3632C116.698 28.8408 116.25 29.5118 116.25 30.376C116.25 31.2403 116.687 31.9567 117.56 32.5253C118.456 33.0711 119.996 33.5943 122.18 34.0946C124.593 34.6632 126.535 35.3114 128.006 36.0392C129.478 36.7443 130.546 37.5858 131.213 38.5638C131.902 39.5417 132.247 40.713 132.247 42.0776C132.247 43.374 131.856 44.5226 131.075 45.5233C130.293 46.5013 129.19 47.2634 127.765 47.809C126.34 48.3322 124.685 48.5935 122.8 48.5935Z" fill="#F7F7F7"/>
<path d="M103.963 48.5935C103.318 48.5935 102.802 48.4117 102.415 48.0479C102.028 47.6837 101.835 47.1835 101.835 46.5468V26.0775C101.835 25.4406 102.028 24.9403 102.415 24.5764C102.802 24.2125 103.318 24.0305 103.963 24.0305C104.587 24.0305 105.102 24.2125 105.511 24.5764C105.919 24.9403 106.124 25.4406 106.124 26.0775V46.5468C106.124 47.1835 105.919 47.6837 105.511 48.0479C105.102 48.4117 104.587 48.5935 103.963 48.5935Z" fill="#F7F7F7"/>
<path d="M85.4594 48.5935C83.8539 48.5935 82.5237 48.0479 81.469 46.9563C80.4137 45.8417 79.4852 44.0108 78.6825 41.4636L73.9006 26.3845C73.8085 26.1116 73.7626 25.8273 73.7626 25.5316C73.7626 24.5309 74.4737 24.0305 75.8955 24.0305C76.6066 24.0305 77.1457 24.167 77.5127 24.4399C77.9026 24.7128 78.1892 25.1563 78.3725 25.7704L83.1203 41.1224C83.556 42.5098 83.9572 43.5105 84.3242 44.1246C84.6912 44.7387 85.0694 45.0457 85.4594 45.0457C85.8493 45.0457 86.228 44.7387 86.595 44.1246C86.9615 43.5105 87.3631 42.5098 87.7989 41.1224L92.5462 25.7704C92.73 25.1563 93.0049 24.7128 93.3719 24.4399C93.7618 24.167 94.3126 24.0305 95.0232 24.0305C96.4454 24.0305 97.1561 24.5309 97.1561 25.5316C97.1561 25.8273 97.1103 26.1116 97.0186 26.3845L92.2367 41.4636C91.434 44.0108 90.505 45.8417 89.4502 46.9563C88.395 48.0479 87.0649 48.5935 85.4594 48.5935Z" fill="#F7F7F7"/>
<path d="M0.0734253 48.5201V2.63204C0.0734253 0.877261 1.91019 -0.275169 3.49485 0.485357L21.0559 8.91338C21.8826 9.31013 22.4083 10.1446 22.4083 11.0601V46.8908C22.4083 48.2059 23.4769 49.2724 24.7952 49.2724H40.907C42.2253 49.2724 43.2939 48.2059 43.2939 46.8908V21.1118C43.2939 20.1989 42.7711 19.3663 41.9479 18.9682L38.2643 17.1868L29.5511 12.9729C28.7279 12.5748 28.2051 11.7422 28.2051 10.8293V2.64468C28.2051 0.886794 30.0478 -0.265515 31.633 0.501108L49.0236 8.91146C49.8465 9.30962 50.3696 10.1422 50.3696 11.0551V48.4958C50.3696 49.1653 50.0872 49.8035 49.5921 50.2547L26.4324 71.3638C25.5094 72.2053 24.0922 72.1932 23.1835 71.3366L0.82108 50.2514C0.343856 49.8016 0.0734253 49.1751 0.0734253 48.5201Z" fill="url(#paint0_linear_2064_41)"/>
</g>
<defs>
<linearGradient id="paint0_linear_2064_41" x1="0.0734244" y1="0.117117" x2="50.5669" y2="72.1169" gradientUnits="userSpaceOnUse">
<stop stop-color="#18A5A7"/>
<stop offset="1" stop-color="#BFFFC7"/>
</linearGradient>
<clipPath id="clip0_2064_41">
<rect width="216" height="72" fill="white" transform="translate(0.0734253)"/>
</clipPath>
</defs>
</svg>
